<svg xmlns="http://www.w3.org/2000/svg" width="12" height="13" viewBox="0 0 12 13" fill="none"><path d="M5.63815 12.2613C5.40573 10.9288 4.46055 9.25534 2.66315 7.90729C1.77995 7.24102 0.88125 6.80716 -0.00195312 6.62122V5.97044C1.74896 5.55208 3.46888 4.37448 4.56901 2.77852C5.12682 1.97279 5.4832 1.18255 5.63815 0.361328H6.28893C6.55234 1.9263 7.76094 3.66172 9.40339 4.82383C10.2091 5.39713 11.0458 5.7845 11.898 5.97044V6.62122C10.1781 6.9776 8.1793 8.51159 7.18763 10.0766C6.6918 10.8668 6.3974 11.5951 6.28893 12.2613H5.63815Z" fill="url(#paint0_linear_158_221)"></path><defs><linearGradient id="paint0_linear_158_221" x1="5.94805" y1="0.361328" x2="5.94805" y2="12.2613" gradientUnits="userSpaceOnUse"><stop stop-color="#64A2FF"></stop><stop offset="1" stop-color="#AA6ADC"></stop></linearGradient></defs></svg>